<svg width="60" height="60" viewBox="0 0 60 60" fill="none" xmlns="http://www.w3.org/2000/svg">
<path d="M34.7323 40.8H34.6031C34.4419 40.7771 34.2746 40.7732 34.1206 40.7276C33.5948 40.5715 33.0683 40.4154 32.5523 40.2322C31.8539 39.9841 31.1367 39.8121 30.4094 39.9944C29.5004 40.2223 28.6119 40.5281 27.7146 40.8H26.9827C26.3873 40.6178 25.8608 40.3212 25.4193 39.8861C24.4498 38.9301 23.6941 37.8234 23.0706 36.6292C22.3668 35.2811 21.9256 33.8511 21.7146 32.3495C21.5548 31.2118 21.5372 30.0789 21.8234 28.9594C22.215 27.4281 22.9919 26.1398 24.372 25.2652C25.393 24.6181 26.5142 24.2813 27.7241 24.5274C28.4533 24.6759 29.1592 24.951 29.8618 25.2061C30.4195 25.4085 30.9479 25.4442 31.5056 25.2083C31.9708 25.0114 32.4546 24.8534 32.9371 24.6985C34.705 24.1323 36.3573 24.3931 37.8901 25.4034C38.3439 25.7025 38.704 26.1002 39.0022 26.5717C37.3457 27.605 36.5135 29.0376 36.6545 30.9826C36.7958 32.9317 37.8523 34.2306 39.6 35.0548C39.542 35.2192 39.4961 35.3584 39.444 35.4957C38.8853 36.9663 38.0379 38.2706 37.0377 39.4852C36.6835 39.9155 36.2827 40.3072 35.7592 40.5262C35.4356 40.6615 35.0752 40.7116 34.7314 40.8H34.7323Z" fill="white"/>
<path d="M34.9948 19.2077C35.0951 20.4223 34.7506 21.4942 34.0035 22.4445C33.5581 23.0108 33.0505 23.511 32.3863 23.8379C31.8195 24.1166 31.2218 24.2143 30.5944 24.1625C30.0217 22.177 32.805 19.0238 34.9948 19.2077Z" fill="white"/>
</svg>
