<svg width="76" height="95" viewBox="0 0 76 95" fill="none" xmlns="http://www.w3.org/2000/svg">
<path d="M28.2286 90.8634C43.8188 90.8634 56.4571 89.7334 56.4571 88.3394C56.4571 86.9455 43.8188 85.8154 28.2286 85.8154C12.6384 85.8154 0 86.9455 0 88.3394C0 89.7334 12.6384 90.8634 28.2286 90.8634Z" fill="#F0CCB4"/>
<path d="M49.9429 90.8634C64.3338 90.8634 76 89.7334 76 88.3394C76 86.9455 64.3338 85.8154 49.9429 85.8154C35.5519 85.8154 23.8857 86.9455 23.8857 88.3394C23.8857 89.7334 35.5519 90.8634 49.9429 90.8634Z" fill="#F0CCB4"/>
<path d="M47.5143 94.279C57.4014 93.8808 65.391 93.0088 65.3594 92.3314C65.3279 91.654 57.2872 91.4277 47.4 91.8259C37.5128 92.2241 29.5233 93.096 29.5548 93.7734C29.5864 94.4508 37.6271 94.6772 47.5143 94.279Z" fill="#F0CCB4"/>
<path d="M48.9068 30.1559L40.6053 30.0198C39.0658 29.9946 37.7957 31.1347 37.7686 32.5663L37.3693 53.6261C37.3422 55.0577 38.5682 56.2387 40.1078 56.2639L48.4093 56.4C49.9488 56.4253 51.2189 55.2852 51.246 53.8536L51.6453 32.7938C51.6724 31.3622 50.4464 30.1812 48.9068 30.1559Z" fill="#EDA900"/>
<path d="M47.5122 30.1308L39.2107 29.9947C37.6711 29.9694 36.4011 31.1095 36.374 32.5411L35.9747 53.601C35.9475 55.0326 37.1736 56.2136 38.7131 56.2388L47.0146 56.3749C48.5542 56.4001 49.8242 55.26 49.8514 53.8284L50.2506 32.7686C50.2778 31.337 49.0517 30.156 47.5122 30.1308Z" fill="#FFEC00"/>
<path d="M44.8547 30.0895L36.5532 29.9534C35.0137 29.9282 33.7437 31.0683 33.7165 32.4999L33.3172 53.5597C33.2901 54.9913 34.5161 56.1723 36.0557 56.1975L44.3572 56.3336C45.8967 56.3589 47.1668 55.2188 47.1939 53.7872L47.5932 32.7273C47.6203 31.2957 46.3943 30.1147 44.8547 30.0895Z" fill="url(#paint0_linear_1_146)"/>
<g style="mix-blend-mode:multiply">
<path d="M36.0479 33.1166C36.4651 33.1166 36.8033 32.8021 36.8033 32.4142C36.8033 32.0262 36.4651 31.7117 36.0479 31.7117C35.6307 31.7117 35.2924 32.0262 35.2924 32.4142C35.2924 32.8021 35.6307 33.1166 36.0479 33.1166Z" fill="#FFEC00"/>
<path d="M40.3854 37.5085C40.973 37.5085 41.4493 37.0655 41.4493 36.5191C41.4493 35.9727 40.973 35.5298 40.3854 35.5298C39.7978 35.5298 39.3215 35.9727 39.3215 36.5191C39.3215 37.0655 39.7978 37.5085 40.3854 37.5085Z" fill="#FFEC00"/>
<path d="M44.598 32.8425C45.1856 32.8425 45.6619 32.3995 45.6619 31.8531C45.6619 31.3067 45.1856 30.8638 44.598 30.8638C44.0104 30.8638 43.534 31.3067 43.534 31.8531C43.534 32.3995 44.0104 32.8425 44.598 32.8425Z" fill="#FFEC00"/>
<path d="M39.7661 31.8817C40.033 31.8817 40.2493 31.6804 40.2493 31.432C40.2493 31.1836 40.033 30.9822 39.7661 30.9822C39.4992 30.9822 39.2829 31.1836 39.2829 31.432C39.2829 31.6804 39.4992 31.8817 39.7661 31.8817Z" fill="#FFEC00"/>
<path d="M45.0063 36.3236C45.2732 36.3236 45.4895 36.1223 45.4895 35.8739C45.4895 35.6254 45.2732 35.4241 45.0063 35.4241C44.7395 35.4241 44.5231 35.6254 44.5231 35.8739C44.5231 36.1223 44.7395 36.3236 45.0063 36.3236Z" fill="#FFEC00"/>
<path d="M37.9716 39.7094C38.2385 39.7094 38.4548 39.508 38.4548 39.2596C38.4548 39.0112 38.2385 38.8098 37.9716 38.8098C37.7047 38.8098 37.4884 39.0112 37.4884 39.2596C37.4884 39.508 37.7047 39.7094 37.9716 39.7094Z" fill="#FFEC00"/>
<path d="M45.0018 43.2274C45.419 43.2274 45.7572 42.9129 45.7572 42.525C45.7572 42.137 45.419 41.8225 45.0018 41.8225C44.5846 41.8225 44.2464 42.137 44.2464 42.525C44.2464 42.9129 44.5846 43.2274 45.0018 43.2274Z" fill="#FFEC00"/>
<path d="M39.884 45.8454C40.4403 45.8454 40.8913 45.426 40.8913 44.9088C40.8913 44.3915 40.4403 43.9722 39.884 43.9722C39.3278 43.9722 38.8768 44.3915 38.8768 44.9088C38.8768 45.426 39.3278 45.8454 39.884 45.8454Z" fill="#FFEC00"/>
<path d="M35.719 42.3083C35.937 42.3083 36.1137 42.1438 36.1137 41.9409C36.1137 41.738 35.937 41.5735 35.719 41.5735C35.501 41.5735 35.3242 41.738 35.3242 41.9409C35.3242 42.1438 35.501 42.3083 35.719 42.3083Z" fill="#FFEC00"/>
<path d="M43.4094 48.6282C43.6274 48.6282 43.8041 48.4637 43.8041 48.2607C43.8041 48.0578 43.6274 47.8933 43.4094 47.8933C43.1914 47.8933 43.0146 48.0578 43.0146 48.2607C43.0146 48.4637 43.1914 48.6282 43.4094 48.6282Z" fill="#FFEC00"/>
<path d="M36.5288 50.4374C37.0125 50.4374 37.4045 50.0728 37.4045 49.6231C37.4045 49.1734 37.0125 48.8088 36.5288 48.8088C36.0452 48.8088 35.6532 49.1734 35.6532 49.6231C35.6532 50.0728 36.0452 50.4374 36.5288 50.4374Z" fill="#FFEC00"/>
<path d="M40.7189 54.4085C41.0058 54.4085 41.2384 54.192 41.2384 53.925C41.2384 53.6579 41.0058 53.4414 40.7189 53.4414C40.432 53.4414 40.1994 53.6579 40.1994 53.925C40.1994 54.192 40.432 54.4085 40.7189 54.4085Z" fill="#FFEC00"/>
<path d="M45.3353 53.0005C45.7676 53.0005 46.118 52.6746 46.118 52.2727C46.118 51.8708 45.7676 51.5449 45.3353 51.5449C44.9031 51.5449 44.5527 51.8708 44.5527 52.2727C44.5527 52.6746 44.9031 53.0005 45.3353 53.0005Z" fill="#FFEC00"/>
<path d="M45.4691 45.7927C45.7986 45.7927 46.0657 45.5443 46.0657 45.2379C46.0657 44.9315 45.7986 44.6831 45.4691 44.6831C45.1396 44.6831 44.8725 44.9315 44.8725 45.2379C44.8725 45.5443 45.1396 45.7927 45.4691 45.7927Z" fill="#FFEC00"/>
<path d="M42.7107 39.5781C43.0402 39.5781 43.3073 39.3297 43.3073 39.0233C43.3073 38.7169 43.0402 38.4685 42.7107 38.4685C42.3812 38.4685 42.1141 38.7169 42.1141 39.0233C42.1141 39.3297 42.3812 39.5781 42.7107 39.5781Z" fill="#FFEC00"/>
<path d="M36.6218 36.0214C36.9513 36.0214 37.2185 35.7731 37.2185 35.4667C37.2185 35.1603 36.9513 34.9119 36.6218 34.9119C36.2923 34.9119 36.0252 35.1603 36.0252 35.4667C36.0252 35.7731 36.2923 36.0214 36.6218 36.0214Z" fill="#FFEC00"/>
</g>
<path d="M37.9563 0L69.5432 5.55636L63.6655 15.7325L39.4331 11.4692L37.9563 0Z" fill="#FFEC00"/>
<path d="M40.2928 11.4671L39.3219 5.76727L38.351 0.0695801L39.1087 5.7968L39.8664 11.5219L40.2928 11.4671Z" fill="#FFC600"/>
<path d="M41.0209 11.5957L40.971 11.2371L40.1861 5.92755L40.1611 5.75458L39.3467 0.244629L39.9819 5.94232L40 6.12374L40.6148 11.6379L41.0209 11.5957Z" fill="#FFC600"/>
<path d="M41.7515 11.7244L41.7152 11.3826L41.0528 6.08784L41.0301 5.91486L40.3405 0.419678L40.8531 6.08784L40.869 6.26925L41.3658 11.7539L41.7515 11.7244Z" fill="#FFC600"/>
<path d="M42.4819 11.8511L42.4592 11.5305L41.917 6.24836L41.9012 6.07539L41.3363 0.594971L41.7265 6.2336L41.7378 6.41501L42.1167 11.8701L42.4819 11.8511Z" fill="#FFC600"/>
<path d="M43.2101 11.9795L43.2033 11.6779L42.7836 6.4084L42.77 6.23543L42.3322 0.769775L42.5998 6.37887L42.6066 6.56028L42.8675 11.9859L43.2101 11.9795Z" fill="#FFC600"/>
<path d="M43.9405 12.1084L43.9473 11.8236L43.6479 6.56893L43.6388 6.39595L43.3257 0.945068L43.4709 6.52463L43.4755 6.70394L43.6161 12.1021L43.9405 12.1084Z" fill="#FFC600"/>
<path d="M44.671 12.2368L44.6914 11.971L44.5145 6.72897L44.5076 6.55599L44.3216 1.11987L44.3443 6.6699V6.84921L44.367 12.2178L44.671 12.2368Z" fill="#FFC600"/>
<path d="M45.4016 12.3657L45.4356 12.1189L45.3789 6.88949V6.71652L45.3176 1.29517L45.2178 6.81566L45.2133 6.99497L45.118 12.3341L45.4016 12.3657Z" fill="#FFC600"/>
<path d="M46.1296 12.4943L46.1795 12.2644L46.2453 7.04978L46.2475 6.87891L46.3111 1.47021L46.0887 6.96118L46.0797 7.13837L45.8664 12.45L46.1296 12.4943Z" fill="#FFC600"/>
<path d="M46.8601 12.6209L46.9236 12.412L47.1096 7.21006L47.1164 7.03919L47.307 1.64526L46.9622 7.10669L46.9486 7.28389L46.6174 12.566L46.8601 12.6209Z" fill="#FFC600"/>
<path d="M47.5906 12.7493L47.6677 12.5573L47.9763 7.3701L47.9853 7.19923L48.3029 1.82007L47.8356 7.25197L47.8175 7.42916L47.3683 12.6818L47.5906 12.7493Z" fill="#FFC600"/>
<path d="M48.3187 12.8784L48.4117 12.7054L48.8405 7.53087L48.8564 7.36L49.2964 1.99561L48.7066 7.39797L48.6862 7.57306L48.1191 12.7982L48.3187 12.8784Z" fill="#FFC600"/>
<path d="M49.0492 13.007L49.1559 12.853L49.7071 7.69115L49.7253 7.52028L50.2924 2.17065L49.5801 7.54349L49.5551 7.71857L48.8678 12.9142L49.0492 13.007Z" fill="#FFC600"/>
<path d="M49.7798 13.1357L49.9 12.9986L50.5715 7.85143L50.5942 7.68057L51.2861 2.3457L50.4535 7.689L50.424 7.86409L49.6187 13.0302L49.7798 13.1357Z" fill="#FFC600"/>
<path d="M50.5079 13.2643L50.644 13.1462L51.438 8.01172L51.4629 7.84085L52.2819 2.52075L51.3246 7.83452L51.2928 8.0075L50.3695 13.1462L50.5079 13.2643Z" fill="#FFC600"/>
<path d="M51.2384 13.3929L51.3881 13.2938L52.3024 8.16989L52.3341 8.00113L53.2778 2.6958L52.198 7.98004L52.1617 8.15301L51.1182 13.2622L51.2384 13.3929Z" fill="#FFC600"/>
<path d="M51.969 13.5197L52.13 13.4396L53.1667 8.33042L53.203 8.16166L54.2715 2.87109L53.0715 8.1258L53.0284 8.29877L51.8691 13.3784L51.969 13.5197Z" fill="#FFC600"/>
<path d="M52.6993 13.6481L52.874 13.5869L54.0332 8.49045L54.0718 8.3217L55.2673 3.0459L53.9425 8.27107L53.8971 8.44194L52.6199 13.4941L52.6993 13.6481Z" fill="#FFC600"/>
<path d="M53.4274 13.777L53.618 13.7327L54.8975 8.65098L54.9428 8.48222L56.2631 3.22119L54.8158 8.41683L54.7659 8.5877L53.3685 13.6104L53.4274 13.777Z" fill="#FFC600"/>
<path d="M54.158 13.9056L54.3621 13.8802L55.7641 8.81117L55.8117 8.64242L57.2568 3.39404L55.6892 8.56226L55.6348 8.73312L54.1194 13.7263L54.158 13.9056Z" fill="#FFC600"/>
<path d="M54.8885 14.0344L55.1063 14.0281L56.6285 8.9717L56.6806 8.80294L58.2527 3.56934L56.5604 8.70802L56.5037 8.87677L54.8704 13.8425L54.8885 14.0344Z" fill="#FFC600"/>
<path d="M55.6168 14.1628L55.8504 14.1734L57.4951 9.13174L57.5496 8.96509L59.2487 3.74414L57.4339 8.85329L57.3726 9.02205L55.6213 13.9582L55.6168 14.1628Z" fill="#FFC600"/>
<path d="M56.3472 14.2917L56.5944 14.3213L58.3594 9.29227L58.4206 9.12562L60.2422 3.91943L58.3072 8.99905L58.2414 9.16781L56.3699 14.0744L56.3472 14.2917Z" fill="#FFC600"/>
<path d="M57.0777 14.4185L57.3386 14.467L59.226 9.45279L59.2895 9.28615L61.2382 4.09473L59.1784 9.14481L59.108 9.31146L57.1208 14.1907L57.0777 14.4185Z" fill="#FFC600"/>
<path d="M57.8057 14.5469L58.0825 14.6144L60.0901 9.61283L60.1582 9.44618L62.2339 4.26953L60.0515 9.29008L59.9767 9.45673L57.8715 14.3064L57.8057 14.5469Z" fill="#FFC600"/>
<path d="M58.5362 14.6755L58.8266 14.762L60.9567 9.77311L61.0271 9.60647L63.2275 4.44458L60.925 9.4356L60.8456 9.60225L58.6202 14.4224L58.5362 14.6755Z" fill="#FFC600"/>
<path d="M59.2668 14.8042L59.5707 14.9075L61.8211 9.9334L61.8982 9.76675L64.2235 4.61963L61.7962 9.58111L61.7145 9.74565L59.3711 14.5384L59.2668 14.8042Z" fill="#FFC600"/>
<path d="M59.9971 14.9331L60.3147 15.0554L62.6876 10.0939L62.767 9.92728L65.2193 4.79492L62.6695 9.72688L62.5832 9.89141L60.1219 14.6546L59.9971 14.9331Z" fill="#FFC600"/>
<path d="M60.7254 15.0615L61.0589 15.2028L63.552 10.254L63.6359 10.0873L66.213 4.96973L63.5429 9.87215L63.4522 10.0367L60.8729 14.7703L60.7254 15.0615Z" fill="#FFC600"/>
<path d="M61.4559 15.1901L61.803 15.3483L64.4186 10.4142L64.5048 10.2476L67.2089 5.14478L64.4141 10.0177L64.3211 10.1801L61.6215 14.8863L61.4559 15.1901Z" fill="#FFC600"/>
<path d="M62.1863 15.3169L62.547 15.4962L65.2829 10.5748L65.3759 10.4081L68.2047 5.32007L65.2874 10.1634L65.1876 10.3259L62.3724 15.0026L62.1863 15.3169Z" fill="#FFC600"/>
<path d="M63.291 15.6417L66.2447 10.5684L69.1983 5.49512L66.0564 10.4714L62.9145 15.4455L63.291 15.6417Z" fill="#FFC600"/>
<path d="M49.2467 18.4666L35.8869 84.1514L38.4324 84.5991L51.7922 18.9143L49.2467 18.4666Z" fill="#D3D3D3"/>
<path d="M49.7089 18.5494L36.3491 84.2341L36.9866 84.3462L50.3464 18.6615L49.7089 18.5494Z" fill="#E6E6EE"/>
<path d="M51.4971 13.3676L51.6877 13.4014L64.2371 15.61L64.1645 15.9665C63.94 17.0656 62.9169 17.8672 61.7145 17.884L55.2538 17.306C54.0515 17.3229 53.0284 18.1245 52.8038 19.2235L52.6472 19.9935L50.4241 19.6033L50.2335 19.5695L48.0104 19.1792L48.1669 18.4093C48.3915 17.3103 47.7518 16.2175 46.6402 15.7914L40.3995 14.1355C39.2879 13.7115 38.6482 12.6167 38.8728 11.5176L38.9454 11.1611L51.4948 13.3698L51.4971 13.3676Z" fill="#0075C5"/>
<g opacity="0.63">
<path d="M48.8588 19.3272L49.1242 18.0278C49.3488 16.9287 48.7091 15.836 47.5975 15.4099L41.3568 13.754C40.3019 13.3511 39.6758 12.3491 39.8029 11.3091L40.6173 11.4525C40.7579 12.2394 41.3205 12.9313 42.1531 13.2477L48.3938 14.9036C49.5053 15.3276 50.1451 16.4224 49.9205 17.5215L49.5303 19.4432L48.8611 19.3251L48.8588 19.3272Z" fill="url(#paint1_linear_1_146)"/>
</g>
<path d="M38.4506 85.5498L40.5694 75.1332L37.6157 74.6143L35.4969 85.0308C35.3427 85.7903 35.8781 86.5201 36.6947 86.6636C37.5114 86.807 38.2963 86.3092 38.4506 85.5498ZM37.736 85.4042C37.6566 85.7945 37.2528 86.0497 36.8331 85.9759C36.4134 85.9021 36.1389 85.5266 36.2183 85.1363C36.2977 84.7461 36.7015 84.4908 37.1212 84.5647C37.5409 84.6385 37.8154 85.014 37.736 85.4042Z" fill="#EE0441"/>
<g style="mix-blend-mode:multiply">
<path d="M34.0108 31.9114L33.6575 53.6882C33.6336 55.1628 34.7172 56.3909 36.0663 56.4149L42.3428 56.5371V44.2232C42.3428 43.9287 42.3009 43.6429 42.2251 43.3746C42.0215 42.6591 41.5685 42.0658 40.9758 41.7146C40.6066 41.4943 40.1815 41.3699 39.7305 41.3699H39.467V38.1437H37.8325V34.311C37.8325 34.311 37.7946 32.8582 39.0479 32.8996C40.0657 32.9323 40.6325 32.7753 40.6265 32.2692C40.6265 32.1536 40.5926 32.0205 40.5287 31.8634C40.3571 31.4468 39.3892 30.3583 38.4113 29.3156L36.5034 29.2785C35.1543 29.2523 34.0307 30.4368 34.0088 31.9114H34.0108Z" fill="#E5E2D1"/>
</g>
<path d="M27.2463 30.4692C27.2463 30.4692 26.357 34.5026 25.1434 35.705C25.7899 35.8104 26.2754 35.7345 26.4546 35.6142C26.6338 35.494 28.8161 33.1124 28.9794 30.8954C28.5099 30.5895 27.2486 30.4692 27.2486 30.4692H27.2463Z" fill="#EE0441"/>
<path d="M27.2463 30.4692C27.2463 30.4692 27.2395 30.503 27.2259 30.5599C27.6093 30.6274 28.0653 30.7371 28.3103 30.8954C28.1492 33.1124 25.9646 35.494 25.7854 35.6142C25.706 35.667 25.5631 35.7113 25.3725 35.7345C25.9034 35.7893 26.2981 35.7197 26.4546 35.6142C26.6316 35.494 28.8161 33.1124 28.9795 30.8954C28.5099 30.5895 27.2486 30.4692 27.2486 30.4692H27.2463Z" fill="#C90052"/>
<path d="M24.3676 27.6572H23.3853V29.4123H24.3676V27.6572Z" fill="#C90052"/>
<path d="M25.8217 30.0474H24.5604C24.3381 30.0474 24.1566 29.8786 24.1566 29.6719V27.5202C24.1566 27.3135 24.3381 27.1447 24.5604 27.1447H25.8217V30.0474Z" fill="#EE0441"/>
<path d="M35.6966 38.4832V33.8192C35.6966 33.8192 35.6535 32.4143 37.0781 32.4543C38.5027 32.4944 39.1493 32.2539 38.7614 31.4523C38.4574 30.8258 35.9643 28.6277 34.644 27.4696C34.1517 27.0393 33.5029 26.7988 32.8269 26.7988H25.6447V30.29C25.6447 30.29 30.0457 30.8511 30.0457 33.5407C30.0457 35.3063 30.0457 38.4853 30.0457 38.4853H35.6966V38.4832Z" fill="#D3D3D3"/>
<path d="M34.1222 38.4832V33.8192C34.1222 33.8192 33.977 32.4543 37.0781 32.4543C38.5027 32.4543 39.1493 32.2539 38.7614 31.4523C38.4574 30.8258 35.9643 28.6277 34.644 27.4696C34.1517 27.0393 33.5029 26.7988 32.8269 26.7988H25.6447V30.29C25.6447 30.29 30.0457 30.8511 30.0457 33.5407C30.0457 35.3063 30.0457 38.4853 30.0457 38.4853H34.1222V38.4832Z" fill="#E6E6EE"/>
<path d="M25.6425 27.1423H31.7743C32.4436 27.1423 33.081 27.4081 33.5256 27.8743L34.8278 29.237C35.1681 29.5935 35.1907 30.1251 34.8777 30.5048C34.5533 30.8993 33.9703 31.0111 33.503 30.7706L32.1509 30.0703C31.7766 29.8762 31.3547 29.775 30.9282 29.775H25.6425V27.1423Z" fill="#F2F2F2"/>
<path d="M27.9473 40.6472H37.5522V37.5273H27.9473V40.6472Z" fill="#EE0441"/>
<path d="M33.6275 40.6472H37.5544V37.5273H33.6275V40.6472Z" fill="#C90052"/>
<path d="M24.1793 42.3009L20.6721 48.545C20.012 49.7199 19.6672 51.0257 19.6672 52.3505V69.2706C19.6672 70.5784 20.806 71.6374 22.2125 71.6374H38.2713C39.6778 71.6374 40.8166 70.5784 40.8166 69.2706V43.4063C40.8166 41.8832 39.4873 40.6471 37.8494 40.6471H27.1079C25.8761 40.6471 24.7464 41.2842 24.1747 42.2988L24.1793 42.3009Z" fill="#E6E6EE"/>
<path d="M25.014 69.2708V52.3507C25.014 51.0259 25.3589 49.7202 26.019 48.5452L29.5261 42.3011C30.0955 41.2865 31.2275 40.6494 32.4593 40.6494H28.8206C27.5888 40.6494 26.4591 41.2865 25.8874 42.3011L22.3803 48.5452C21.7202 49.7202 21.3753 51.0259 21.3753 52.3507V69.2708C21.3753 70.5786 22.5141 71.6376 23.9206 71.6376H27.5593C26.1528 71.6376 25.014 70.5786 25.014 69.2708Z" fill="#F2F2F2"/>
<path d="M37.8517 40.6472H27.1102C26.4683 40.6472 25.8535 40.8223 25.3317 41.1324H34.9593C36.5972 41.1324 37.9266 42.3685 37.9266 43.8916V69.7559C37.9266 71.0637 36.7878 71.6396 35.3813 71.6396H38.2737C39.6801 71.6396 40.8189 70.5807 40.8189 69.2728V43.4085C40.8189 41.8855 39.4896 40.6493 37.8517 40.6493V40.6472Z" fill="#D3D3D3"/>
<path d="M37.8992 56.1625C37.8992 56.1625 44.9679 48.4777 46.0568 45.9675C47.1457 43.4572 47.8467 41.2907 49.8339 38.5927C51.8211 35.8947 54.346 32.2538 55.3237 32.2242C56.3015 32.1947 56.3854 32.9267 55.9861 33.6165C55.5869 34.3042 53.1459 38.0253 52.9803 38.3417C52.8147 38.6581 52.9985 39.021 53.484 38.4303C53.9694 37.8418 57.7352 32.7495 58.393 32.0871C59.0509 31.4247 60.0899 32.0133 59.6521 32.8275C59.2142 33.6418 55.8795 38.232 55.6005 38.6412C55.3215 39.0505 55.6391 39.4914 56.0338 38.9598C56.4285 38.4282 60.2736 33.4498 60.9066 32.7706C61.5395 32.0913 62.549 32.8444 62.2019 33.5321C61.8548 34.2198 57.801 39.4576 57.497 39.8521C57.1953 40.2466 57.5083 40.5419 57.8849 40.1116C58.2615 39.6812 61.5803 35.3526 62.2291 34.8505C62.8779 34.3485 63.9078 35.0256 63.2409 36.0424C62.5762 37.0591 58.0845 42.9172 57.7306 43.5373C57.3767 44.1575 57.7148 44.4191 58.7855 43.3939C59.8562 42.3687 60.6956 41.238 61.3172 41.508C61.9387 41.778 62.2042 43.0479 59.4774 45.5498C56.7506 48.0537 54.9993 48.868 53.8015 49.4713C52.6038 50.0746 45.9661 60.9046 45.9661 60.9046C45.9661 60.9046 41.7421 60.1727 37.8947 56.1625H37.8992Z" fill="#0075C5"/>
<path opacity="0.63" d="M61.1813 41.6726C61.1813 41.6726 61.6168 42.0122 61.4512 42.7505C61.2856 43.4889 60.0538 44.8642 59.3143 45.4443C58.5747 46.0245 56.2382 48.1128 54.7205 48.8069C53.3118 49.4502 52.9556 49.735 52.1299 50.9374C51.9189 51.2454 45.4196 61.2169 45.0816 61.6388C45.1451 61.2169 43.539 60.9384 43.6932 60.5841C43.8248 60.2845 49.8455 50.0599 51.8826 48.8322C52.5473 48.4314 54.1103 47.7057 55.2219 47.1657C57.445 46.0856 59.5434 44.4297 60.3691 43.3644C61.1949 42.2991 61.1858 41.6726 61.1858 41.6726H61.1813Z" fill="url(#paint2_linear_1_146)"/>
<path opacity="0.39" d="M50.4534 38.6877C50.4534 38.6877 46.4721 42.8877 48.0033 45.3157C49.5346 47.7437 51.4946 48.1783 54.1261 46.9548C59.5479 41.2613 53.0962 39.3332 50.4534 38.6877Z" fill="url(#paint3_linear_1_146)"/>
<path opacity="0.49" d="M62.4923 34.8887C62.4923 34.8887 62.9528 34.8128 63.1547 35.2178C63.3566 35.6228 63.1298 36.0869 62.6511 36.6396C62.1725 37.1944 60.0264 39.9177 59.9629 40.0126C61.6121 37.6416 62.6171 36.5953 62.7282 36.0173C62.8394 35.4393 62.4878 35.3148 62.3086 35.2937C62.1294 35.2726 62.1815 34.8613 62.4946 34.8887H62.4923Z" fill="url(#paint4_linear_1_146)"/>
<path opacity="0.49" d="M61.365 32.6209C61.365 32.6209 61.8255 32.5449 62.0274 32.95C62.2293 33.355 62.0025 33.8191 61.5238 34.3717C61.0451 34.9244 58.8991 37.6499 58.8356 37.7448C60.4848 35.3737 61.4898 34.3274 61.6009 33.7495C61.7121 33.1715 61.3605 33.047 61.1813 33.0259C61.002 33.0048 61.0542 32.5935 61.3673 32.6209H61.365Z" fill="url(#paint5_linear_1_146)"/>
<path opacity="0.49" d="M58.7879 31.9822C58.7879 31.9822 59.2484 31.9063 59.4503 32.3113C59.6522 32.7163 59.4253 33.1804 58.9467 33.7331C58.468 34.2858 56.322 37.0112 56.2585 37.1061C57.9077 34.7351 58.9127 33.6888 59.0238 33.1108C59.135 32.5328 58.7834 32.4083 58.6041 32.3872C58.4249 32.3661 58.4771 31.9548 58.7902 31.9822H58.7879Z" fill="url(#paint6_linear_1_146)"/>
<path opacity="0.49" d="M55.2536 32.4226C55.2536 32.4226 55.7141 32.3467 55.916 32.7517C56.1179 33.1567 55.9024 33.5765 55.4918 34.2178C55.0812 34.8591 53.0077 37.7659 52.9442 37.8609C54.5934 35.4898 55.3761 34.1292 55.4872 33.5512C55.5984 32.9732 55.2468 32.8488 55.0676 32.8277C54.8883 32.8066 54.9405 32.3952 55.2536 32.4226Z" fill="url(#paint7_linear_1_146)"/>
<path d="M44.5641 88.406H25.8171C21.8539 88.406 18.6417 85.4189 18.6417 81.7337L17.4258 51.7116H52.9531L51.7372 81.7337C51.7372 85.4189 48.525 88.406 44.5619 88.406H44.5641Z" fill="#EE0441"/>
<path d="M48.8788 51.7136L47.6878 81.1429C47.6878 84.8281 44.4756 87.8152 40.5125 87.8152H22.8633C23.7639 88.1949 24.7644 88.4079 25.817 88.4079H44.564C48.5272 88.4079 51.7394 85.4209 51.7394 81.7356L52.9553 51.7136H48.8811H48.8788Z" fill="#C90052"/>
<path d="M17.428 51.7136L18.4829 77.7762C23.8321 83.8304 34.4964 82.0584 34.4964 82.0584C39.7911 81.01 41.556 77.6728 41.556 73.9875L42.4566 51.7136H17.428Z" fill="#FF3C41"/>
<path d="M53.8084 50.583H16.7498C16.3902 50.583 16.0988 50.854 16.0988 51.1884V52.2368C16.0988 52.5712 16.3902 52.8422 16.7498 52.8422H53.8084C54.168 52.8422 54.4595 52.5712 54.4595 52.2368V51.1884C54.4595 50.854 54.168 50.583 53.8084 50.583Z" fill="#FF5F6B"/>
<path d="M52.5902 55.1838H17.7887C17.2137 55.1838 16.7475 55.6173 16.7475 56.1521C16.7475 56.6868 17.2137 57.1203 17.7887 57.1203H52.5902C53.1652 57.1203 53.6314 56.6868 53.6314 56.1521C53.6314 55.6173 53.1652 55.1838 52.5902 55.1838Z" fill="#FF5F6B"/>
<g style="mix-blend-mode:multiply">
<path d="M36.7672 51.7137H35.6874C35.0318 53.3591 30.1975 65.4296 27.0397 71.1673C25.4971 73.9687 23.587 75.5761 21.6679 75.6879C20.2637 75.7702 19.1997 75.0319 18.6734 74.3147C18.4987 74.0784 18.3808 73.7852 18.3105 73.4498L18.3944 75.4981C19.2814 76.2955 20.495 76.7279 21.7359 76.6541C21.838 76.6477 21.9446 76.6393 22.0535 76.6245C23.6664 76.4262 25.9077 75.3525 27.9698 71.6082C31.3749 65.4232 36.69 51.9943 36.7422 51.8593C36.7604 51.8108 36.7694 51.7623 36.7717 51.7116L36.7672 51.7137Z" fill="#C9B1B6"/>
</g>
<path d="M36.5336 51.1781C36.2795 51.0537 35.9642 51.1444 35.8304 51.3806C35.7578 51.5072 28.621 64.1176 24.4061 69.7837C22.4801 72.372 20.3613 73.7326 18.4421 73.6082C17.0402 73.5175 16.0897 72.6568 15.6677 71.8805C14.7921 70.271 16.4254 66.7735 17.9226 64.2337L17.841 62.4195C16.3959 64.626 13.3606 69.7837 14.7376 72.3172C15.4409 73.6103 16.8337 74.4773 18.3718 74.5743C18.4739 74.5806 18.5805 74.5849 18.6894 74.5849C20.3182 74.5849 22.6911 73.7959 25.2636 70.3343C29.5148 64.6197 36.6811 51.9565 36.7514 51.8299C36.8852 51.5937 36.7877 51.3005 36.5336 51.176V51.1781Z" fill="#B5B5B5"/>
<g style="mix-blend-mode:multiply">
<path d="M22.1033 64.3074L22.5459 63.8824C22.8457 63.5948 22.8457 63.1276 22.5459 62.84C22.2462 62.5524 21.7599 62.5524 21.4602 62.84L21.0176 63.265L20.7417 63.0007L20.3209 62.5947L18.9157 63.9437L18.7847 63.8169L18.5346 63.5779L18.4572 63.6519L19.1062 82.041C19.1062 84.517 20.3706 86.678 22.2502 87.8346C22.4626 87.5576 22.5896 87.2171 22.5896 86.8492V71.5218C22.5896 71.063 22.3951 70.6464 22.0815 70.3462C21.7679 70.0459 21.3352 69.8599 20.8568 69.8599H20.5373C20.4222 69.8599 20.315 69.8324 20.2237 69.7838C20.0867 69.7119 19.9795 69.5935 19.924 69.456C19.914 69.4328 19.9061 69.4095 19.9001 69.3841C19.8743 69.2869 19.8724 69.1833 19.9001 69.0797C19.9061 69.0543 19.916 69.0268 19.9259 69.0014L20.44 67.7307L20.7655 68.0436L21.9723 66.8849L21.3947 66.3309L22.8 64.9819L22.1033 64.3116V64.3074Z" fill="#C9B1B6"/>
</g>
<path d="M6.77057 67.9694L15.087 61.8794L18.2879 64.9951L17.6073 66.6257C17.4054 67.1088 17.7888 67.6277 18.3446 67.6277H18.7302C19.8849 67.6277 20.8218 68.4989 20.8218 69.5727V87.4969C20.8218 88.5706 19.8849 89.4418 18.7302 89.4418H7.95474C6.80006 89.4418 5.86316 88.5706 5.86316 87.4969V69.5727C5.86316 68.9061 6.22385 68.3196 6.77284 67.9694H6.77057Z" fill="#0075C5"/>
<path d="M18.7326 67.6256H18.3469C17.7911 67.6256 17.4077 67.1067 17.6096 66.6236L18.2902 64.993L17.7843 64.5015L15.7336 66.6236C14.2114 68.0686 15.4795 68.1277 17.4145 68.1277H17.8002C18.9549 68.1277 19.1749 68.4968 19.1749 69.5726V87.4969C19.1749 88.5706 18.238 89.4418 17.0833 89.4418H18.7371C19.8918 89.4418 20.8287 88.5706 20.8287 87.4969V69.5726C20.8287 68.4989 19.8918 67.6277 18.7371 67.6277L18.7326 67.6256Z" fill="#005ABC"/>
<path opacity="0.63" d="M11.1602 87.0579V69.4417C11.1602 68.7878 11.5209 68.2098 12.0699 67.8659L18.3492 63.3474L16.8156 61.8813L8.49922 67.868C7.95023 68.2119 7.58954 68.7899 7.58954 69.4438V87.06C7.58954 88.1169 8.52644 88.9733 9.68112 88.9733H13.2518C12.0971 88.9733 11.1602 88.1169 11.1602 87.06V87.0579Z" fill="url(#paint8_linear_1_146)"/>
<path d="M20.022 61.3406L18.7092 60.1198L19.4603 59.4214C19.823 59.0841 20.4104 59.0841 20.7731 59.4214C21.1358 59.7586 21.1358 60.3049 20.7731 60.6421L20.022 61.3406Z" fill="#FFEC00"/>
<path d="M16.2064 60.8811L19.2029 63.6675L21.0812 61.9208L18.0848 59.1344L16.2064 60.8811Z" fill="url(#paint9_linear_1_146)"/>
<path d="M16.7147 61.357L18.0558 62.604L19.9341 60.8573L18.5931 59.6103L16.7147 61.357Z" fill="#FFEC00"/>
<path d="M14.4703 61.6418L18.6233 65.5037L20.0798 64.1493L15.9268 60.2874L14.4703 61.6418Z" fill="#EF9300"/>
<path d="M14.771 61.9229L16.079 63.1392L17.5363 61.7841L16.2283 60.5678L14.771 61.9229Z" fill="url(#paint10_linear_1_146)"/>
<path d="M55.2285 55.8503H58.5043C58.9534 55.8503 59.3187 56.19 59.3187 56.6076V59.9069H54.4141V56.6076C54.4141 56.19 54.7794 55.8503 55.2285 55.8503Z" fill="#FF3C41"/>
<path d="M56.8482 55.8503H55.2285C54.7794 55.8503 54.4141 56.19 54.4141 56.6076V59.9069H56.0338V56.6076C56.0338 56.19 56.3991 55.8503 56.8482 55.8503Z" fill="#FF5F6B"/>
<path d="M50.9866 64.4657V85.2334C50.9866 86.9864 52.5156 88.4082 54.4007 88.4082H64.4639C66.349 88.4082 67.878 86.9864 67.878 85.2334V74.1102C67.878 72.3973 67.878 70.5789 67.2201 69.0242L65.217 64.4657C64.3731 62.5882 61.3787 61.2909 59.4913 61.2909H54.4007C52.5156 61.2909 50.9866 62.7127 50.9866 64.4657ZM62.6423 73.3233C62.6423 72.3867 63.4589 71.6294 64.4639 71.6294C65.4711 71.6294 66.2855 72.3888 66.2855 73.3233V81.4954C66.2855 82.4321 65.4688 83.1894 64.4639 83.1894C63.4567 83.1894 62.6423 82.4299 62.6423 81.4954V73.3233Z" fill="#EDA900"/>
<path d="M64.4636 83.1871C62.9437 83.1871 62.0635 82.24 62.0635 81.3034V73.1313C62.0635 72.1946 62.8802 71.4373 63.8852 71.4373C64.3026 71.4373 64.7676 71.5555 65.1691 71.758C64.9514 71.6736 64.7132 71.6272 64.4636 71.6272C63.4564 71.6272 62.642 72.3866 62.642 73.3211V81.4932C62.642 82.4298 63.4587 83.1871 64.4636 83.1871Z" fill="#EF9300"/>
<path d="M66.546 82.972L64.856 83.147C65.439 83.0268 65.9177 82.6492 66.1445 82.1493C66.6164 82.645 67.2198 82.9741 66.546 82.9741V82.972Z" fill="#EDA900"/>
<path d="M54.4005 61.2906H59.491C60.614 61.2906 61.8662 61.5227 63.0141 62.4551C63.8443 63.1322 65.1011 64.3894 65.1011 65.4147V67.4292C65.1011 68.2646 64.3729 68.9417 63.4746 68.9417C62.2155 68.9417 61.197 69.891 61.197 71.0596V88.4037H54.4027C52.5176 88.4037 50.9886 86.9819 50.9886 85.229V64.4612C50.9886 62.7082 52.5176 61.2864 54.4027 61.2864L54.4005 61.2906Z" fill="#FFC600"/>
<path opacity="0.63" d="M55.4418 61.8814H58.9943C60.1173 61.8814 60.816 62.3434 61.374 63.1134C61.4353 63.1978 61.4897 63.2842 61.5464 63.3728C61.3808 63.3475 61.2062 63.3349 61.0201 63.3349H56.3969C55.1038 63.3349 54.0535 64.3094 54.0535 65.514V87.501C54.0535 87.6655 54.0739 87.8238 54.1102 87.9778C52.8852 87.4947 52.0277 87.1403 52.0277 85.8261V65.0583C52.0277 63.3053 53.5567 61.8835 55.4418 61.8835V61.8814Z" fill="url(#paint11_linear_1_146)"/>
<path d="M59.9221 59.4346H53.8538V61.2951H59.9221V59.4346Z" fill="#C90052"/>
<g style="mix-blend-mode:multiply">
<path d="M44.8363 85.6491L29.6349 50.5896H26.8423L42.4339 86.5519L44.8363 85.6491Z" fill="#C9B1B6"/>
</g>
<path d="M9.13539 10.3848L6.79984 11.4272L45.0636 85.5577L47.3991 84.5153L9.13539 10.3848Z" fill="#D3D3D3"/>
<path d="M8.7155 10.5727L8.13058 10.8337L46.3943 84.9642L46.9792 84.7031L8.7155 10.5727Z" fill="#E6E6EE"/>
<path d="M6.18293 10.674L11.1238 20.2278L13.8324 19.017L8.89154 9.46319C8.53085 8.76707 7.63251 8.47385 6.88617 8.80926C6.13982 9.14466 5.82223 9.98001 6.18293 10.674ZM6.84987 10.3977C6.66385 10.0412 6.82719 9.61086 7.21057 9.43999C7.59395 9.26912 8.05673 9.41889 8.24048 9.7754C8.42423 10.1319 8.26316 10.5622 7.87978 10.7331C7.4964 10.904 7.03362 10.7542 6.84987 10.3977Z" fill="#EE0441"/>
<path d="M51.2723 86.6254L48.7724 84.3451C48.4139 84.0181 47.9262 83.8451 47.4249 83.8662L44.3578 83.9949C43.8837 84.0139 43.4549 84.2649 43.2304 84.6552L41.7309 87.254L51.2745 86.6254H51.2723Z" fill="#0041A0"/>
<path d="M31.779 93.574L61.66 92.3695L61.4218 87.1971C61.4037 86.8153 61.0566 86.5178 60.646 86.5347L32.5095 87.6696C31.956 87.6907 31.5272 88.1253 31.5522 88.64L31.779 93.5761V93.574Z" fill="#5A595A"/>
<path d="M31.5702 89.0511L61.4512 87.8466L61.4058 86.8804C61.3831 86.3784 60.9249 85.9881 60.385 86.0092L32.464 87.1357C31.9241 87.1568 31.5044 87.5829 31.5271 88.0849L31.5724 89.0511H31.5702Z" fill="#005ABC"/>
<path d="M31.7834 93.5729L61.6636 92.3695L61.6118 91.2567L31.7316 92.4601L31.7834 93.5729Z" fill="#353535"/>
<g style="mix-blend-mode:multiply">
<path d="M40.2129 55.1838C39.7592 54.1354 39.5187 52.1715 40.0791 51.391C40.6394 50.6105 41.4356 50.583 41.4356 50.583C41.4356 50.583 40.349 49.5684 35.9095 49.8321C32.6587 50.024 31.4541 51.2011 31.4315 51.72C31.3952 52.5343 31.3226 53.2157 31.2023 53.6713C30.5104 56.2997 29.721 58.4387 29.6393 61.7084C29.5577 64.9781 29.3217 69.3046 30.0976 69.8594C30.8734 70.4142 31.402 69.8658 31.5086 69.0895C31.6175 68.3132 31.9691 63.9677 32.0372 63.6217C32.1029 63.2758 32.4772 63.0796 32.5022 63.8221C32.5272 64.5646 32.3888 70.7412 32.5022 71.6377C32.6179 72.5342 33.8338 72.6186 33.9903 71.72C34.1469 70.8235 34.3193 65.284 34.351 64.8009C34.3828 64.3178 34.9159 64.1322 34.9023 64.7777C34.8887 65.4232 34.8842 71.5533 34.9704 72.4478C35.0566 73.3422 36.3519 73.2789 36.5016 72.5342C36.6513 71.7875 36.6491 65.3346 36.6513 64.8494C36.6536 64.3642 37.0937 64.2946 37.13 64.8494C37.1663 65.4042 37.1413 70.718 37.3523 71.4774C37.5633 72.2368 38.8246 72.2473 38.9221 71.0597C39.0197 69.8721 39.0514 62.6788 39.1535 61.9848C39.2556 61.2907 39.6934 61.2612 39.9203 62.6746C40.1471 64.0879 40.1176 65.4612 40.7914 65.5793C41.4651 65.6974 42.4792 64.8115 41.8349 61.2992C41.1929 57.7869 40.7165 56.3546 40.2106 55.1817L40.2129 55.1838Z" fill="#C9B1B6"/>
</g>
<path d="M39.4849 54.2494C39.317 53.8845 39.224 51.8678 39.7662 51.1548C40.2721 50.4882 41.4336 50.5831 41.4336 50.5831C41.4336 50.5831 40.4082 48.8154 35.9619 48.8892C32.7066 48.9441 31.443 50.0663 31.3953 50.5831C31.3182 51.3953 31.2139 52.0724 31.0709 52.5238C30.2497 55.1206 29.3559 57.2237 29.1132 60.4871C28.8705 63.7505 28.4213 68.0601 29.1677 68.6487C29.914 69.2372 30.4698 68.7098 30.6172 67.9399C30.7624 67.1699 31.3318 62.8434 31.4135 62.4995C31.4974 62.1557 31.8808 61.9785 31.8672 62.721C31.8559 63.4636 31.4112 69.6296 31.4838 70.5282C31.5564 71.429 32.7655 71.564 32.9652 70.6738C33.1648 69.7836 33.6117 64.2588 33.6661 63.7779C33.7206 63.2969 34.2628 63.1345 34.2197 63.7779C34.1743 64.4234 33.868 70.5451 33.9089 71.4437C33.952 72.3402 35.2473 72.3339 35.4333 71.5956C35.6193 70.8573 35.9347 64.4086 35.9619 63.9256C35.9891 63.4404 36.4315 63.3897 36.4405 63.9466C36.4496 64.5036 36.1615 69.8089 36.3362 70.5788C36.5109 71.3467 37.7676 71.41 37.9264 70.2287C38.0852 69.0474 38.4686 61.8625 38.607 61.1727C38.7431 60.4829 39.1809 60.4723 39.3397 61.8941C39.4962 63.3159 39.3987 64.6871 40.0656 64.8326C40.7326 64.9803 41.7875 64.1365 41.3201 60.601C40.8528 57.0655 40.0225 55.4138 39.4872 54.2515L39.4849 54.2494Z" fill="#0075C5"/>
<path opacity="0.63" d="M40.0656 64.6197C40.0656 64.6197 40.6327 64.6028 40.9957 63.9299C41.3564 63.2569 41.311 61.466 41.1159 60.5842C40.9231 59.7025 40.2902 56.8884 39.5642 55.4667C38.8905 54.1482 38.6795 53.5913 38.8338 52.1717C38.8474 52.0514 39.2398 49.1446 41.0705 50.1845C40.7484 49.9061 40.1835 49.5369 39.2466 49.2627C38.7816 49.1277 38.101 49.2817 37.6768 50.0094C36.994 51.1697 37.2776 52.8952 37.5475 53.6356C37.8016 54.3339 38.5434 55.8042 39.0538 56.8695C40.0747 59 40.6168 61.5082 40.5556 62.8203C40.4921 64.1324 40.0656 64.6176 40.0656 64.6176V64.6197Z" fill="url(#paint12_linear_1_146)"/>
<path opacity="0.49" d="M36.5675 70.6946C36.5675 70.6946 36.8783 71.0195 37.307 70.8191C37.7358 70.6187 37.8674 70.1229 37.8606 69.4121C37.8537 68.7012 37.9899 65.326 38.0035 65.2163C37.7154 68.0282 37.8061 69.4268 37.5067 69.9457C37.2072 70.4647 36.8488 70.3571 36.6945 70.2706C36.5403 70.1841 36.3043 70.5364 36.5698 70.6946H36.5675Z" fill="url(#paint13_linear_1_146)"/>
<path opacity="0.49" d="M34.1674 71.8235C34.1674 71.8235 34.4782 72.1484 34.907 71.948C35.3357 71.7476 35.4673 71.2519 35.4605 70.541C35.4537 69.8301 35.5898 66.4549 35.6034 66.3452C35.3153 69.1571 35.4061 70.5557 35.1066 71.0747C34.8072 71.5936 34.4487 71.486 34.2945 71.3995C34.1402 71.313 33.9043 71.6653 34.1697 71.8235H34.1674Z" fill="url(#paint14_linear_1_146)"/>
<path opacity="0.49" d="M31.7219 70.8362C31.7219 70.8362 32.0327 71.1611 32.4615 70.9607C32.8902 70.7603 33.0218 70.2646 33.015 69.5537C33.0082 68.8428 33.1443 65.4676 33.1579 65.3579C32.8698 68.1698 32.9606 69.5684 32.6611 70.0874C32.3617 70.6063 32.0032 70.4987 31.849 70.4122C31.6947 70.3257 31.4588 70.678 31.7242 70.8362H31.7219Z" fill="url(#paint15_linear_1_146)"/>
<path opacity="0.49" d="M29.2448 68.4524C29.2448 68.4524 29.5556 68.7773 29.9843 68.5769C30.4131 68.3765 30.5242 67.9229 30.6308 67.1825C30.7375 66.4421 31.0505 62.9656 31.0641 62.856C30.776 65.6679 30.4811 67.1846 30.1817 67.7035C29.8822 68.2225 29.5238 68.1149 29.3696 68.0284C29.2153 67.9419 28.9794 68.2942 29.2448 68.4524Z" fill="url(#paint16_linear_1_146)"/>
<defs>
<linearGradient id="paint0_linear_1_146" x1="30.5786" y1="52.0084" x2="48.9455" y2="32.9411" gradientUnits="userSpaceOnUse">
<stop stop-color="#FFC300"/>
<stop offset="1" stop-color="#FFE331"/>
</linearGradient>
<linearGradient id="paint1_linear_1_146" x1="45.2965" y1="12.2743" x2="44.2003" y2="18.5071" gradientUnits="userSpaceOnUse">
<stop stop-color="white" stop-opacity="0.1"/>
<stop offset="0.13" stop-color="white" stop-opacity="0.12"/>
<stop offset="0.26" stop-color="white" stop-opacity="0.16"/>
<stop offset="0.4" stop-color="white" stop-opacity="0.24"/>
<stop offset="0.53" stop-color="white" stop-opacity="0.35"/>
<stop offset="0.66" stop-color="white" stop-opacity="0.5"/>
<stop offset="0.8" stop-color="white" stop-opacity="0.67"/>
<stop offset="0.93" stop-color="white" stop-opacity="0.88"/>
<stop offset="1" stop-color="white"/>
</linearGradient>
<linearGradient id="paint2_linear_1_146" x1="48.4603" y1="47.8271" x2="54.158" y2="53.406" gradientUnits="userSpaceOnUse">
<stop stop-color="white" stop-opacity="0.1"/>
<stop offset="0.13" stop-color="white" stop-opacity="0.12"/>
<stop offset="0.26" stop-color="white" stop-opacity="0.16"/>
<stop offset="0.4" stop-color="white" stop-opacity="0.24"/>
<stop offset="0.53" stop-color="white" stop-opacity="0.35"/>
<stop offset="0.66" stop-color="white" stop-opacity="0.5"/>
<stop offset="0.8" stop-color="white" stop-opacity="0.67"/>
<stop offset="0.93" stop-color="white" stop-opacity="0.88"/>
<stop offset="1" stop-color="white"/>
</linearGradient>
<linearGradient id="paint3_linear_1_146" x1="45.812" y1="45.2437" x2="56.9332" y2="40.4684" gradientUnits="userSpaceOnUse">
<stop stop-color="white"/>
<stop offset="0.12" stop-color="white" stop-opacity="0.78"/>
<stop offset="0.24" stop-color="white" stop-opacity="0.57"/>
<stop offset="0.37" stop-color="white" stop-opacity="0.4"/>
<stop offset="0.5" stop-color="white" stop-opacity="0.25"/>
<stop offset="0.62" stop-color="white" stop-opacity="0.14"/>
<stop offset="0.75" stop-color="white" stop-opacity="0.06"/>
<stop offset="0.88" stop-color="white" stop-opacity="0.02"/>
<stop offset="1" stop-color="white" stop-opacity="0"/>
</linearGradient>
<linearGradient id="paint4_linear_1_146" x1="59.4965" y1="35.8388" x2="62.0538" y2="38.3439" gradientUnits="userSpaceOnUse">
<stop stop-color="white" stop-opacity="0.1"/>
<stop offset="0.13" stop-color="white" stop-opacity="0.12"/>
<stop offset="0.26" stop-color="white" stop-opacity="0.16"/>
<stop offset="0.4" stop-color="white" stop-opacity="0.24"/>
<stop offset="0.53" stop-color="white" stop-opacity="0.35"/>
<stop offset="0.66" stop-color="white" stop-opacity="0.5"/>
<stop offset="0.8" stop-color="white" stop-opacity="0.67"/>
<stop offset="0.93" stop-color="white" stop-opacity="0.88"/>
<stop offset="1" stop-color="white"/>
</linearGradient>
<linearGradient id="paint5_linear_1_146" x1="58.3686" y1="33.5692" x2="60.9258" y2="36.0743" gradientUnits="userSpaceOnUse">
<stop stop-color="white" stop-opacity="0.1"/>
<stop offset="0.13" stop-color="white" stop-opacity="0.12"/>
<stop offset="0.26" stop-color="white" stop-opacity="0.16"/>
<stop offset="0.4" stop-color="white" stop-opacity="0.24"/>
<stop offset="0.53" stop-color="white" stop-opacity="0.35"/>
<stop offset="0.66" stop-color="white" stop-opacity="0.5"/>
<stop offset="0.8" stop-color="white" stop-opacity="0.67"/>
<stop offset="0.93" stop-color="white" stop-opacity="0.88"/>
<stop offset="1" stop-color="white"/>
</linearGradient>
<linearGradient id="paint6_linear_1_146" x1="55.7913" y1="32.9317" x2="58.35" y2="35.4351" gradientUnits="userSpaceOnUse">
<stop stop-color="white" stop-opacity="0.1"/>
<stop offset="0.13" stop-color="white" stop-opacity="0.12"/>
<stop offset="0.26" stop-color="white" stop-opacity="0.16"/>
<stop offset="0.4" stop-color="white" stop-opacity="0.24"/>
<stop offset="0.53" stop-color="white" stop-opacity="0.35"/>
<stop offset="0.66" stop-color="white" stop-opacity="0.5"/>
<stop offset="0.8" stop-color="white" stop-opacity="0.67"/>
<stop offset="0.93" stop-color="white" stop-opacity="0.88"/>
<stop offset="1" stop-color="white"/>
</linearGradient>
<linearGradient id="paint7_linear_1_146" x1="52.0117" y1="33.2261" x2="55.0866" y2="36.2365" gradientUnits="userSpaceOnUse">
<stop stop-color="white" stop-opacity="0.1"/>
<stop offset="0.13" stop-color="white" stop-opacity="0.12"/>
<stop offset="0.26" stop-color="white" stop-opacity="0.16"/>
<stop offset="0.4" stop-color="white" stop-opacity="0.24"/>
<stop offset="0.53" stop-color="white" stop-opacity="0.35"/>
<stop offset="0.66" stop-color="white" stop-opacity="0.5"/>
<stop offset="0.8" stop-color="white" stop-opacity="0.67"/>
<stop offset="0.93" stop-color="white" stop-opacity="0.88"/>
<stop offset="1" stop-color="white"/>
</linearGradient>
<linearGradient id="paint8_linear_1_146" x1="5.63407" y1="63.5014" x2="20.2655" y2="91.067" gradientUnits="userSpaceOnUse">
<stop stop-color="white"/>
<stop offset="0.07" stop-color="white" stop-opacity="0.88"/>
<stop offset="0.2" stop-color="white" stop-opacity="0.67"/>
<stop offset="0.34" stop-color="white" stop-opacity="0.5"/>
<stop offset="0.47" stop-color="white" stop-opacity="0.35"/>
<stop offset="0.6" stop-color="white" stop-opacity="0.24"/>
<stop offset="0.74" stop-color="white" stop-opacity="0.16"/>
<stop offset="0.87" stop-color="white" stop-opacity="0.12"/>
<stop offset="1" stop-color="white" stop-opacity="0.1"/>
</linearGradient>
<linearGradient id="paint9_linear_1_146" x1="16.2049" y1="61.4016" x2="21.0776" y2="61.4016" gradientUnits="userSpaceOnUse">
<stop stop-color="#FFE331"/>
<stop offset="1" stop-color="#FFC300"/>
</linearGradient>
<linearGradient id="paint10_linear_1_146" x1="14.7698" y1="61.8515" x2="17.5343" y2="61.8515" gradientUnits="userSpaceOnUse">
<stop stop-color="#FFE331"/>
<stop offset="1" stop-color="#FFC300"/>
</linearGradient>
<linearGradient id="paint11_linear_1_146" x1="61.5464" y1="74.9285" x2="52.03" y2="74.9285" gradientUnits="userSpaceOnUse">
<stop stop-color="white" stop-opacity="0.1"/>
<stop offset="0.13" stop-color="white" stop-opacity="0.12"/>
<stop offset="0.26" stop-color="white" stop-opacity="0.16"/>
<stop offset="0.4" stop-color="white" stop-opacity="0.24"/>
<stop offset="0.53" stop-color="white" stop-opacity="0.35"/>
<stop offset="0.66" stop-color="white" stop-opacity="0.5"/>
<stop offset="0.8" stop-color="white" stop-opacity="0.67"/>
<stop offset="0.93" stop-color="white" stop-opacity="0.88"/>
<stop offset="1" stop-color="white"/>
</linearGradient>
<linearGradient id="paint12_linear_1_146" x1="30.3064" y1="55.3992" x2="45.8198" y2="58.3492" gradientUnits="userSpaceOnUse">
<stop stop-color="white" stop-opacity="0.1"/>
<stop offset="0.13" stop-color="white" stop-opacity="0.12"/>
<stop offset="0.26" stop-color="white" stop-opacity="0.16"/>
<stop offset="0.4" stop-color="white" stop-opacity="0.24"/>
<stop offset="0.53" stop-color="white" stop-opacity="0.35"/>
<stop offset="0.66" stop-color="white" stop-opacity="0.5"/>
<stop offset="0.8" stop-color="white" stop-opacity="0.67"/>
<stop offset="0.93" stop-color="white" stop-opacity="0.88"/>
<stop offset="1" stop-color="white"/>
</linearGradient>
<linearGradient id="paint13_linear_1_146" x1="34.855" y1="68.2209" x2="38.5479" y2="67.9445" gradientUnits="userSpaceOnUse">
<stop stop-color="white" stop-opacity="0.1"/>
<stop offset="0.13" stop-color="white" stop-opacity="0.12"/>
<stop offset="0.26" stop-color="white" stop-opacity="0.16"/>
<stop offset="0.4" stop-color="white" stop-opacity="0.24"/>
<stop offset="0.53" stop-color="white" stop-opacity="0.35"/>
<stop offset="0.66" stop-color="white" stop-opacity="0.5"/>
<stop offset="0.8" stop-color="white" stop-opacity="0.67"/>
<stop offset="0.93" stop-color="white" stop-opacity="0.88"/>
<stop offset="1" stop-color="white"/>
</linearGradient>
<linearGradient id="paint14_linear_1_146" x1="32.456" y1="69.3502" x2="36.1489" y2="69.0738" gradientUnits="userSpaceOnUse">
<stop stop-color="white" stop-opacity="0.1"/>
<stop offset="0.13" stop-color="white" stop-opacity="0.12"/>
<stop offset="0.26" stop-color="white" stop-opacity="0.16"/>
<stop offset="0.4" stop-color="white" stop-opacity="0.24"/>
<stop offset="0.53" stop-color="white" stop-opacity="0.35"/>
<stop offset="0.66" stop-color="white" stop-opacity="0.5"/>
<stop offset="0.8" stop-color="white" stop-opacity="0.67"/>
<stop offset="0.93" stop-color="white" stop-opacity="0.88"/>
<stop offset="1" stop-color="white"/>
</linearGradient>
<linearGradient id="paint15_linear_1_146" x1="30.0092" y1="68.3635" x2="33.7019" y2="68.0896" gradientUnits="userSpaceOnUse">
<stop stop-color="white" stop-opacity="0.1"/>
<stop offset="0.13" stop-color="white" stop-opacity="0.12"/>
<stop offset="0.26" stop-color="white" stop-opacity="0.16"/>
<stop offset="0.4" stop-color="white" stop-opacity="0.24"/>
<stop offset="0.53" stop-color="white" stop-opacity="0.35"/>
<stop offset="0.66" stop-color="white" stop-opacity="0.5"/>
<stop offset="0.8" stop-color="white" stop-opacity="0.67"/>
<stop offset="0.93" stop-color="white" stop-opacity="0.88"/>
<stop offset="1" stop-color="white"/>
</linearGradient>
<linearGradient id="paint16_linear_1_146" x1="27.2418" y1="65.9514" x2="31.681" y2="65.6207" gradientUnits="userSpaceOnUse">
<stop stop-color="white" stop-opacity="0.1"/>
<stop offset="0.13" stop-color="white" stop-opacity="0.12"/>
<stop offset="0.26" stop-color="white" stop-opacity="0.16"/>
<stop offset="0.4" stop-color="white" stop-opacity="0.24"/>
<stop offset="0.53" stop-color="white" stop-opacity="0.35"/>
<stop offset="0.66" stop-color="white" stop-opacity="0.5"/>
<stop offset="0.8" stop-color="white" stop-opacity="0.67"/>
<stop offset="0.93" stop-color="white" stop-opacity="0.88"/>
<stop offset="1" stop-color="white"/>
</linearGradient>
</defs>
</svg>
