<svg width="60" height="60" viewBox="0 0 60 60" fill="none" xmlns="http://www.w3.org/2000/svg">
<path d="M27.381 40.8C27.3749 40.7094 27.3633 40.6188 27.3633 40.5283C27.3623 37.4354 27.3623 34.3428 27.3623 31.25C27.3623 31.1603 27.3623 31.0706 27.3623 30.9596H24V27.1051H27.3623C27.3623 26.9946 27.3617 26.9119 27.3623 26.8288C27.3691 25.8168 27.3424 24.8033 27.3912 23.7931C27.4568 22.4266 27.9138 21.2097 29.0102 20.294C29.7531 19.6735 30.6324 19.3551 31.5908 19.2564C32.728 19.1394 33.8647 19.226 34.9998 19.3208C35.1276 19.3314 35.2555 19.3398 35.4 19.3506V22.7908C35.331 22.7908 35.2555 22.7899 35.1801 22.7908C34.4357 22.8022 33.6905 22.7989 32.9467 22.8296C31.9923 22.869 31.4697 23.3517 31.4304 24.2869C31.3914 25.2126 31.4218 26.1409 31.4218 27.1027H35.2838C35.1135 28.3978 34.9464 29.6677 34.7768 30.9581H31.4298C31.4236 31.0342 31.4157 31.0884 31.4157 31.1425C31.4151 34.3266 31.4151 37.5109 31.4157 40.695C31.4157 40.7299 31.4197 40.7651 31.4218 40.8H27.3814H27.381Z" fill="white"/>
</svg>
