<svg width="42" height="48" viewBox="0 0 42 48" fill="none" xmlns="http://www.w3.org/2000/svg">
<g opacity="0.5">
<path d="M11.8208 41.6013C8.39229 41.604 4.96373 41.608 1.53518 41.6054C0.726953 41.6054 0.00238204 40.9104 0.00238204 40.1233C-0.00166584 33.9145 0.00103275 27.7057 0.00238204 21.4956C0.00238204 21.4287 0.0145257 21.3633 0.0199229 21.2964C0.238508 21.2978 0.457094 21.3018 0.675679 21.3018C12.8706 21.3018 25.0642 21.3018 37.2591 21.3018C37.7277 21.3018 37.9621 21.5348 37.9621 22.0007C37.9648 28.5303 37.9674 35.0611 37.9688 41.5907C35.3714 41.5933 32.774 41.596 30.1766 41.5973C30.2266 41.4049 30.2724 41.2111 30.3264 41.02C30.7784 39.419 30.8283 37.8074 30.4289 36.1904C29.1606 31.056 24.1736 27.9489 18.9262 29.018C14.6314 29.8934 11.354 33.8611 11.3041 38.2123C11.2906 39.3749 11.5199 40.4881 11.8235 41.5973L11.8208 41.6013ZM20.9731 24.8084H30.4613C31.5003 24.8084 31.4719 24.8084 31.5111 23.7968C31.53 23.301 31.3694 23.1968 30.8918 23.1981C24.4651 23.2141 18.0384 23.2088 11.6117 23.2088C10.4904 23.2088 10.512 23.2088 10.4877 24.2953C10.4783 24.7216 10.62 24.8191 11.0302 24.8178C14.344 24.8018 17.6592 24.8084 20.9731 24.8098V24.8084Z" fill="#FBE696"/>
<path d="M33.8289 6.30636C34.0043 6.50949 33.9139 6.75271 33.9179 6.97722C33.9301 7.85789 33.9247 8.73857 33.926 9.61924C33.9206 11.7481 33.9166 13.8769 33.9112 16.0058L8.07359 16.0098C8.07089 12.2853 8.06819 8.56083 8.06549 4.83768C8.06819 3.40642 8.08573 1.97516 8.06684 0.545242C8.06279 0.144329 8.15589 0 8.59172 0C14.7566 0.0133638 20.9229 0.00935464 27.0878 0.0120274C27.2497 0.0120274 27.4278 -0.042764 27.5641 0.102901C27.4076 0.232529 27.4629 0.410268 27.4629 0.569296C27.4589 2.35069 27.4724 4.13208 27.4521 5.91347C27.4481 6.30903 27.5628 6.42396 27.9622 6.41862C29.7608 6.39857 31.5594 6.4106 33.358 6.40792C33.5186 6.40792 33.6994 6.46272 33.8289 6.3077V6.30636ZM20.9998 10.409H28.8689C29.8849 10.409 29.8512 10.4077 29.8971 9.42145C29.9227 8.89091 29.7378 8.79603 29.2453 8.7987C23.8981 8.81607 18.5508 8.80939 13.2036 8.80939C12.0999 8.80939 12.1201 8.80939 12.1026 9.92259C12.0958 10.3369 12.2429 10.4184 12.6248 10.4171C15.4164 10.4037 18.2068 10.4104 20.9985 10.4104L20.9998 10.409ZM19.3631 5.60877H24.002C25.0409 5.60877 25.0126 5.60877 25.0504 4.59313C25.0693 4.09332 24.8925 3.99577 24.423 3.99844C21.2292 4.01848 18.0354 4.00913 14.8416 4.00913C13.7204 4.00913 13.742 4.00913 13.719 5.09961C13.7096 5.53393 13.8675 5.62214 14.2695 5.61679C15.967 5.59674 17.6644 5.60877 19.3631 5.60877Z" fill="#ECECEC"/>
<path d="M11.8208 41.6013C11.5186 40.4921 11.2879 39.3789 11.3013 38.2163C11.3513 33.8637 14.6301 29.8974 18.9235 29.022C24.1709 27.9529 29.1565 31.06 30.4262 36.1944C30.8256 37.8114 30.7757 39.423 30.3237 41.024C30.2697 41.2151 30.2238 41.4089 30.1739 41.6013C29.6005 42.9818 28.8381 44.2327 27.7506 45.2897C22.908 49.9911 14.6827 48.3447 12.0691 42.1412C11.9922 41.9595 11.9031 41.7817 11.8195 41.6013H11.8208ZM21.8069 34.1029C21.8447 34.0775 21.8825 34.0508 21.9203 34.0254C22.2306 34.3448 22.5369 34.6682 22.8526 34.9823C23.696 35.8215 23.6879 35.8122 24.5312 34.9462C24.7686 34.7016 24.739 34.5586 24.5123 34.3381C23.5637 33.4174 22.6341 32.4792 21.6896 31.5531C21.193 31.0667 20.799 31.0707 20.2984 31.5611C19.5455 32.2988 18.7994 33.0432 18.0505 33.7849C17.1897 34.6375 17.1964 34.6295 18.0519 35.47C18.2799 35.6946 18.4256 35.732 18.6536 35.4767C19.107 34.9729 19.5874 34.4918 20.0556 34.0027L20.1891 34.0789C20.1891 34.2379 20.1891 34.3969 20.1891 34.556C20.1891 36.2879 20.1891 38.0185 20.1891 39.7505C20.1891 40.8115 20.1891 40.7928 21.278 40.8142C21.6909 40.8222 21.8204 40.7153 21.815 40.293C21.7934 38.2297 21.8056 36.165 21.8056 34.1016L21.8069 34.1029ZM20.9744 44.0068C22.5545 44.0068 24.1331 44.0095 25.7131 44.0055C26.2893 44.0041 26.632 43.7435 26.6428 43.2464C26.6657 42.2655 26.6455 41.2819 26.6536 40.301C26.6576 39.8975 26.3433 39.9696 26.1598 40.0217C25.7887 40.1286 25.28 39.6796 25.0412 40.2837C25.0129 40.3558 25.0358 40.448 25.0358 40.5322C25.0358 40.9478 25.0048 41.3675 25.0439 41.7804C25.0911 42.2655 24.9589 42.4326 24.4232 42.4232C22.3575 42.3871 20.289 42.4085 18.2219 42.4085C17.379 42.4085 16.9576 41.9987 16.9576 41.179C16.9576 39.9656 16.9576 39.9776 15.7338 40.0004C15.4221 40.007 15.3303 40.1033 15.3357 40.4039C15.3519 41.2686 15.3398 42.1345 15.3425 43.0005C15.3452 43.7462 15.6137 44.0068 16.3841 44.0068C17.9129 44.0081 19.443 44.0068 20.9717 44.0068H20.9744Z" fill="#78A0D3"/>
<path d="M37.9686 41.5947C37.966 35.0652 37.9633 28.5343 37.9619 22.0048C37.9619 21.5388 37.7276 21.3058 37.2589 21.3058C25.064 21.3058 12.8704 21.3058 0.675537 21.3058C0.456951 21.3058 0.238366 21.3018 0.0197802 21.3005C0.0130337 20.0443 -0.0126028 18.7881 0.00763656 17.5319C0.0211295 16.6847 0.666092 16.1007 1.6079 16.0084C2.44986 16.0111 3.29182 16.0138 4.13377 16.0151C5.07693 16.9626 6.02818 17.9021 6.95515 18.8643C7.21151 19.1302 7.47732 19.2184 7.84028 19.2171C13.0998 19.2064 18.3594 19.2104 23.6189 19.2104C27.1811 19.2104 30.7445 19.2104 34.3067 19.2104C34.5387 19.2104 34.7641 19.2331 34.9597 19.0353C35.8786 18.1092 36.811 17.1965 37.7339 16.2744C37.8 16.2089 37.8229 16.102 37.8675 16.0151C38.7094 16.0125 39.55 16.0098 40.392 16.0071C41.4323 16.1113 41.999 16.7181 41.999 17.7484C42.0003 25.1225 42.0003 32.498 41.999 39.8721C41.999 40.9666 41.3473 41.6041 40.2368 41.6067C39.4812 41.6081 38.7243 41.5987 37.9686 41.5947Z" fill="#F9D75D"/>
<path d="M4.13354 16.0126C3.29158 16.0099 2.44962 16.0072 1.60767 16.0046C1.61036 12.8801 1.61171 9.75566 1.61576 6.63121C1.61576 5.43382 2.23914 4.80706 3.43731 4.80973C4.9809 4.81374 6.52449 4.82577 8.06673 4.83512C8.06943 8.5596 8.07213 12.2841 8.07483 16.0072C6.76062 16.0086 5.44775 16.0099 4.13354 16.0112V16.0126Z" fill="#F3A83C"/>
<path d="M40.3919 16.0056C39.5499 16.0083 38.7093 16.0109 37.8674 16.0136C36.5491 16.0109 35.2309 16.0083 33.9126 16.0042C33.918 13.8754 33.922 11.7466 33.9274 9.61771C35.5371 9.61503 37.1469 9.60167 38.7566 9.61236C39.7146 9.61904 40.3771 10.3033 40.3838 11.2721C40.3946 12.8491 40.3906 14.4273 40.3933 16.0042L40.3919 16.0056Z" fill="#F3A83C"/>
<path d="M33.8291 6.30648C33.6982 6.4615 33.5187 6.40671 33.3582 6.40671C31.5596 6.41072 29.761 6.39735 27.9624 6.4174C27.563 6.42141 27.4469 6.30782 27.4523 5.91225C27.4726 4.13086 27.4604 2.34947 27.4631 0.56808C27.4631 0.409051 27.4078 0.229977 27.5643 0.101685C29.653 2.17039 31.7404 4.23777 33.8291 6.30648Z" fill="#CCCCCC"/>
<path d="M20.9743 24.8084C17.6605 24.8084 14.3452 24.8017 11.0314 24.8164C10.6212 24.8177 10.4795 24.7215 10.489 24.2938C10.5119 23.2074 10.4917 23.2074 11.6129 23.2074C18.0396 23.2074 24.4663 23.2127 30.893 23.1967C31.3706 23.1967 31.5325 23.2996 31.5123 23.7954C31.4732 24.8057 31.5015 24.807 30.4626 24.807C27.2998 24.807 24.1371 24.807 20.9743 24.807V24.8084Z" fill="#F5B840"/>
<path d="M33.9112 16.0047C35.2295 16.0073 36.5477 16.01 37.866 16.014C37.8228 16.1022 37.7985 16.2078 37.7324 16.2733C36.8095 17.1954 35.8771 18.1081 34.9583 19.0342C34.7626 19.2307 34.5373 19.2093 34.3052 19.2093C30.7431 19.2093 27.1796 19.2093 23.6175 19.2093C18.3579 19.2093 13.0984 19.2066 7.83883 19.216C7.47587 19.216 7.21006 19.1278 6.9537 18.8632C6.02538 17.901 5.07413 16.9615 4.13232 16.014C5.44654 16.0127 6.7594 16.0114 8.07361 16.01C16.6861 16.01 25.2987 16.0073 33.9112 16.006V16.0047Z" fill="#F5B840"/>
<path d="M21.0001 10.409C18.2084 10.409 15.4181 10.4024 12.6264 10.4157C12.2446 10.4171 12.0975 10.3355 12.1042 9.92127C12.1218 8.8094 12.1015 8.80807 13.2052 8.80807C18.5525 8.80807 23.8997 8.81475 29.247 8.79738C29.7395 8.79604 29.9243 8.88959 29.8987 9.42013C29.8515 10.4064 29.8866 10.4077 28.8705 10.4077C26.2475 10.4077 23.6245 10.4077 21.0015 10.4077L21.0001 10.409Z" fill="#CBCBCB"/>
<path d="M19.3632 5.60871C17.6658 5.60871 15.9684 5.59802 14.2697 5.61673C13.8676 5.62073 13.7097 5.53387 13.7191 5.09955C13.7421 4.00907 13.7191 4.00907 14.8418 4.00907C18.0355 4.00907 21.2293 4.01842 24.4231 3.99837C24.8926 3.9957 25.0681 4.09326 25.0505 4.59306C25.0127 5.60737 25.0411 5.60871 24.0021 5.60871C22.4558 5.60871 20.9095 5.60871 19.3632 5.60871Z" fill="#CBCBCB"/>
<path d="M21.8067 34.1044C21.8067 36.1677 21.7946 38.2324 21.8162 40.2958C21.8202 40.7194 21.692 40.8264 21.2792 40.817C20.1916 40.7943 20.1903 40.813 20.1903 39.7532C20.1903 38.0213 20.1903 36.2907 20.1903 34.5587C20.1903 34.3997 20.1903 34.2407 20.1903 34.0817L20.0567 34.0055C19.5871 34.4959 19.1068 34.9757 18.6548 35.4795C18.4268 35.7334 18.281 35.6973 18.053 35.4728C17.1976 34.6322 17.1895 34.6403 18.0517 33.7877C18.8005 33.046 19.5467 32.3016 20.2996 31.5639C20.8002 31.0735 21.1942 31.0695 21.6907 31.5559C22.6339 32.4807 23.5649 33.4202 24.5134 34.3409C24.7401 34.5601 24.7711 34.7044 24.5323 34.949C23.689 35.8149 23.6971 35.8243 22.8538 34.9851C22.5381 34.671 22.2318 34.3476 21.9214 34.0282C21.8836 34.0536 21.8459 34.0803 21.8081 34.1057L21.8067 34.1044Z" fill="#E0E5F5"/>
<path d="M20.9756 44.0068C19.4468 44.0068 17.9167 44.0068 16.388 44.0068C15.6175 44.0068 15.349 43.7462 15.3463 43.0005C15.3436 42.1346 15.3558 41.2699 15.3396 40.404C15.3342 40.1033 15.4246 40.0071 15.7376 40.0004C16.9614 39.9763 16.9614 39.9656 16.9614 41.1791C16.9614 41.9987 17.3829 42.4085 18.2257 42.4085C20.2928 42.4085 22.36 42.3871 24.4271 42.4232C24.9627 42.4326 25.0936 42.2655 25.0477 41.7804C25.0086 41.3675 25.0396 40.9492 25.0396 40.5322C25.0396 40.4494 25.0154 40.3558 25.045 40.2837C25.2839 39.6796 25.7926 40.13 26.1636 40.0218C26.3458 39.9683 26.6602 39.8975 26.6575 40.3011C26.6494 41.2833 26.6696 42.2655 26.6467 43.2464C26.6345 43.7436 26.2918 44.0042 25.717 44.0055C24.137 44.0095 22.5583 44.0068 20.9783 44.0068H20.9756Z" fill="#E1E6F5"/>
</g>
</svg>
