<svg width="60" height="60" viewBox="0 0 60 60" fill="none" xmlns="http://www.w3.org/2000/svg">
<path d="M29.9981 23.4184C28.4442 23.4494 27.0523 23.931 25.8435 24.9176C25.2725 25.3834 24.7963 25.9335 24.4069 26.5593C24.374 26.612 24.3352 26.6612 24.2993 26.7119C23.0883 26.0118 21.8773 25.3116 20.6659 24.6115C20.6756 24.5853 20.6811 24.5568 20.6953 24.5336C22.4685 21.6347 25.0221 19.8882 28.3777 19.3212C28.6362 19.2776 28.904 19.2944 29.1544 19.2H29.9981C29.9981 20.6061 29.9981 22.0122 29.9984 23.4184H29.9981Z" fill="white"/>
<path d="M20.6656 24.6112C21.8766 25.3114 23.088 26.0115 24.299 26.7117C23.9989 27.298 23.7313 27.897 23.5891 28.5448C23.2382 30.1416 23.4479 31.6619 24.2124 33.1064C24.2447 33.1675 24.2703 33.2322 24.299 33.2952C23.0883 33.9937 21.8776 34.6923 20.6672 35.3908C20.2666 34.777 19.9906 34.1046 19.7544 33.4151C19.4878 32.6368 19.3276 31.8348 19.2445 31.0167C19.24 30.9717 19.2607 30.9152 19.2 30.889V29.201C19.2462 29.1761 19.2371 29.1302 19.2403 29.0901C19.2862 28.4882 19.387 27.8947 19.5415 27.3119C19.7932 26.3609 20.1409 25.4491 20.6663 24.6115L20.6656 24.6112Z" fill="white"/>
<path d="M29.9981 23.4184C29.9981 22.0122 29.9981 20.6061 29.9978 19.2H30.8415C31.1135 19.2873 31.3998 19.2789 31.6786 19.3241C33.7201 19.6567 35.5189 20.5053 37.0811 21.8564C37.392 22.1254 37.4191 22.5734 37.1302 22.8708C36.4643 23.5567 35.7877 24.2323 35.1033 24.8998C34.8177 25.1784 34.4523 25.1639 34.1136 24.8901C33.4296 24.3367 32.6635 23.943 31.8221 23.6902C31.2269 23.5115 30.613 23.4623 29.9981 23.4184Z" fill="white"/>
<path d="M33.298 35.6998C33.7995 35.3626 34.2877 35.0106 34.7088 34.5713C35.2794 33.9762 35.724 33.301 36.0539 32.5459C36.1243 32.3846 36.0998 32.3503 35.9246 32.351C34.3995 32.3568 32.8741 32.3545 31.349 32.3542C30.7205 32.3542 30.4646 32.0988 30.4646 31.4733C30.4646 30.6226 30.464 29.7718 30.4646 28.921C30.4653 28.4093 30.7461 28.1197 31.2579 28.1193C34.1184 28.1171 36.9793 28.1171 39.8398 28.1193C40.3891 28.1197 40.6318 28.3498 40.7103 28.9107C40.8983 30.2531 40.784 31.5768 40.4276 32.8766C39.6602 35.6755 37.9835 37.7857 35.5152 39.2839C35.4797 39.3056 35.4396 39.3195 35.4018 39.337C34.7007 38.1248 33.9992 36.9126 33.298 35.7004V35.6998Z" fill="white"/>
<path d="M20.6669 35.3905C21.8776 34.6919 23.0883 33.9934 24.2987 33.2948C24.6615 33.8466 25.0506 34.3761 25.542 34.8244C26.7695 35.9442 28.2135 36.525 29.8718 36.5793C29.9138 36.5806 29.9558 36.5842 29.9978 36.5868C29.9978 37.9906 29.9978 39.3945 29.9978 40.798C28.2959 40.8093 26.6846 40.4247 25.1679 39.6602C23.3087 38.7234 21.8407 37.3568 20.7586 35.577C20.7228 35.5178 20.6972 35.4525 20.6669 35.3905Z" fill="white"/>
<path d="M29.9978 40.7984C29.9978 39.3945 29.9978 37.9906 29.9978 36.5871C30.8101 36.5448 31.6101 36.4355 32.3679 36.1213C32.6822 35.991 32.9882 35.8411 33.2978 35.6998C33.9989 36.912 34.7001 38.1241 35.4016 39.3363C35.0277 39.6114 34.6025 39.7889 34.1792 39.966C32.8425 40.5259 31.4521 40.8252 29.9978 40.7984Z" fill="white"/>
</svg>
