<svg width="48" height="44" viewBox="0 0 48 44" fill="none" xmlns="http://www.w3.org/2000/svg">
<g opacity="0.5">
<path d="M0.00213623 5.16667C0.163925 4.68586 0.286885 4.18359 0.49829 3.7264C1.551 1.43614 3.37167 0.223402 5.88048 0.0130504C6.01854 0.00231816 6.1566 0.00231816 6.29682 0.00231816C16.537 0.00231816 26.7772 -0.00412118 37.0174 0.00446461C40.1582 0.00661105 42.6412 2.03929 43.2107 5.0572C43.2969 5.51224 43.3185 5.98232 43.3185 6.44595C43.325 12.808 43.3228 19.1701 43.3207 25.5321C43.3207 25.6867 43.2969 25.8391 43.284 25.9936C43.1287 25.8563 42.9669 25.7275 42.8224 25.5837C39.7031 22.4735 36.5751 19.3697 33.4774 16.238C33.0913 15.8474 32.9165 15.9075 32.5692 16.2574C28.5633 20.312 24.4647 24.2765 20.5062 28.3783C20.1438 28.754 19.9669 28.7067 19.6261 28.3633C16.8843 25.6073 14.1145 22.8791 11.377 20.121C11.0103 19.7518 10.8334 19.7947 10.4926 20.136C7.15107 23.4887 3.79016 26.8222 0.433574 30.1599C0.301986 30.2908 0.198441 30.4625 0.00213623 30.5205C0.00213623 22.0678 0.00213623 13.6172 0.00213623 5.16667ZM23.6385 14.5402C23.6212 12.4002 21.9041 10.7131 19.762 10.7345C17.6501 10.756 15.9287 12.4689 15.9287 14.5531C15.9287 16.6437 17.7019 18.4059 19.8008 18.4038C21.9213 18.3995 23.6536 16.6544 23.6385 14.5402Z" fill="#4A566E"/>
<path d="M0.00215719 30.5184C0.198462 30.4604 0.302007 30.2909 0.433595 30.1578C3.79018 26.82 7.15109 23.4866 10.4926 20.1339C10.8334 19.7904 11.0103 19.7497 11.377 20.1188C14.1145 22.8792 16.8843 25.6052 19.6261 28.3612C19.967 28.7046 20.1438 28.7518 20.5063 28.3762C24.4647 24.2744 28.5612 20.3099 32.5693 16.2552C32.9166 15.9032 33.0891 15.8431 33.4774 16.2359C36.5752 19.3676 39.7031 22.4713 42.8224 25.5815C42.9691 25.7275 43.1309 25.8563 43.284 25.9915C43.4501 26.7664 43.4458 26.7728 42.68 26.7986C38.1672 26.9574 34.0771 30.718 33.4947 35.2491C33.0891 38.3958 33.9757 41.1347 36.1329 43.4657C36.2257 43.5666 36.3141 43.6718 36.4026 43.777C36.2214 43.9315 36.0035 43.8628 35.8029 43.8628C30.0885 43.8671 24.3741 43.865 18.6597 43.8671C14.1576 43.8671 9.65558 43.8693 5.15353 43.8714C3.07184 43.5752 1.63299 42.4011 0.640686 40.6067C0.342993 40.0658 0.269649 39.4476 0 38.9002V30.5184H0.00215719Z" fill="#00B493"/>
<path d="M41.7568 35.5259C41.5109 35.7963 41.2973 36.0603 41.0536 36.29C40.4431 36.8674 39.6169 36.8717 39.0517 36.3179C38.4973 35.7727 38.48 34.9227 39.0517 34.3217C40.113 33.2098 41.1895 32.1109 42.2745 31.0205C42.8613 30.4302 43.7695 30.4581 44.3627 31.0591C45.4197 32.1259 46.4789 33.1927 47.5273 34.268C48.1529 34.9098 48.1529 35.7727 47.5553 36.3372C47.0117 36.8524 46.2092 36.8652 45.6311 36.3372C45.3679 36.0968 45.1522 35.8006 44.9063 35.5194C44.6927 35.7663 44.7596 35.9466 44.7596 36.1075C44.7531 37.8655 44.7747 39.6234 44.7445 41.3814C44.7273 42.4889 43.6983 43.1393 42.7124 42.7057C42.0782 42.4267 41.8668 41.8922 41.8711 41.2354C41.8776 39.529 41.8754 37.8226 41.8711 36.1161C41.8711 35.953 41.9272 35.7748 41.7568 35.5259Z" fill="#01B594"/>
<path d="M5.15576 43.8714C9.65782 43.8714 14.1599 43.8671 18.6619 43.8671C24.3763 43.8671 30.0907 43.8671 35.8051 43.8628C36.0057 43.8628 36.2236 43.9315 36.4048 43.777C36.4652 43.8306 36.6486 43.865 36.4933 43.9637C36.394 44.0281 36.2236 43.9873 36.0856 43.9873C26.1841 43.9873 16.2847 43.9873 6.3832 43.983C5.97334 43.983 5.55268 44.0474 5.15576 43.8693V43.8714Z" fill="#1D9186"/>
<path d="M23.6385 14.5402C23.6558 16.6544 21.9214 18.4017 19.8009 18.4038C17.6998 18.4081 15.9266 16.6437 15.9287 14.5531C15.9287 12.4689 17.6502 10.756 19.762 10.7345C21.9041 10.7131 23.6213 12.4002 23.6385 14.5402Z" fill="#FDCA04"/>
</g>
</svg>
